# xmcd CD database file generated by Grip 3.0.7
# 
# Track frame offsets:
#       150
#       18509
#       32890
#       48711
#       66203
# 
# Disc length: 1065 seconds
# 
# Revision: 2
# Processed by: cddbd v1.5PL3 Copyright (c) Steve Scherf et al.
# Submitted via: Grip 3.0.7
# 
DISCID=42042705
DTITLE=Chesney, Kenny - Target Exclusive
DYEAR=2004
DGENRE=Country
TTITLE0=Marina Del Rey
TTITLE1=Come Monday
TTITLE2=I Wonder Do You Think Of Me
TTITLE3=I'm On Fire
TTITLE4=I Always Get Lucky With You
EXTD=
EXTT0=
EXTT1=
EXTT2=
EXTT3=
EXTT4=
PLAYORDER=
